<svg version="1.1" id="Layer_1" xmlns="http://www.w3.org/2000/svg" xmlns:xlink="http://www.w3.org/1999/xlink" x="0px" y="0px"
	 width="100%" viewBox="0 0 528 592" enable-background="new 0 0 528 592" xml:space="preserve">
<path fill="#000000" opacity="1.000000" stroke="none" 
	d="
M237.805054,447.666809 
	C259.858490,446.339508 281.153168,442.854706 302.333923,438.919769 
	C308.159424,461.017548 266.378998,541.510620 240.001602,559.569336 
	C238.328568,559.204102 238.361008,557.568481 238.048920,556.446289 
	C230.215973,528.281189 214.157990,504.982544 195.003006,483.515839 
	C180.123016,466.840027 163.618515,451.748352 148.183212,435.614563 
	C131.515533,418.192566 116.460670,399.601715 106.572525,377.328033 
	C94.444588,350.009125 93.134087,321.708954 98.819763,292.754791 
	C103.819344,267.294525 111.747177,242.849075 123.918938,219.860535 
	C129.398224,209.511932 135.835632,199.820557 143.669388,191.092957 
	C144.663727,189.985153 145.807541,189.001923 146.951904,188.044388 
	C147.281570,187.768585 147.855255,187.784409 149.058105,187.477356 
	C143.883286,229.968689 149.343292,268.771942 184.438644,297.447510 
	C184.959152,297.290497 185.479675,297.133484 186.000183,296.976501 
	C184.463715,287.341003 182.853500,277.716614 181.405655,268.067810 
	C178.081177,245.912735 177.619125,223.668106 179.576263,201.365555 
	C182.242645,170.980743 191.668686,142.845627 207.803711,116.967072 
	C222.554749,93.308266 241.975281,73.990067 264.044037,57.262783 
	C280.396942,44.867878 297.817108,34.059536 315.769836,24.126801 
	C317.441803,23.201754 318.942596,21.681175 321.510712,21.935717 
	C321.255524,24.483076 319.460541,26.089121 318.266479,27.925632 
	C309.591339,41.268269 302.286804,55.247364 298.446106,70.804848 
	C292.518921,94.814087 299.431458,115.751228 313.807587,134.961365 
	C325.463501,150.536591 339.749298,163.565231 353.737488,176.903030 
	C374.747589,196.936218 395.443604,217.279800 410.456604,242.473007 
	C424.120636,265.402466 432.308899,290.102539 434.504150,316.843933 
	C435.254425,325.983185 435.168396,335.026947 435.277374,344.120880 
	C432.766815,344.429779 432.353485,342.702332 431.561737,341.578552 
	C424.810181,331.995728 417.270447,323.085022 408.004700,315.874542 
	C404.516602,313.160187 404.453247,309.584015 404.075134,306.099823 
	C401.770416,284.862946 393.233887,266.071350 381.746613,248.432281 
	C374.541962,237.369370 366.328430,227.096390 356.839630,217.882645 
	C355.543976,216.624527 354.433655,215.081009 351.731537,214.454269 
	C345.154358,226.641800 338.480255,239.008896 331.945282,251.118256 
	C329.509827,251.742661 328.488190,250.155792 327.230255,249.187607 
	C317.864868,241.979340 307.484924,236.853745 296.043884,233.887558 
	C290.168518,232.364334 288.856110,233.045639 286.709808,238.835098 
	C282.498230,250.195419 281.293396,262.120911 280.376190,274.061035 
	C279.777100,281.860077 279.593658,289.694672 279.381287,297.517578 
	C279.320129,299.769745 278.414124,301.211151 276.679443,302.500458 
	C260.300781,314.673798 249.873810,330.859070 244.010147,350.302399 
	C239.064499,366.701599 227.805420,378.291199 214.217911,388.017365 
	C203.788620,395.482788 193.627701,403.324646 183.157837,410.731018 
	C179.602631,413.245941 179.042892,415.383484 181.107697,419.332214 
	C188.314636,433.114746 198.280792,443.481018 213.906174,447.120239 
	C221.625397,448.918091 229.516891,447.489105 237.805054,447.666809 
z"/>
<path fill="#000000" opacity="1.000000" stroke="none" 
	d="
M381.220581,263.899048 
	C387.730621,277.638153 393.109222,291.394318 396.945099,305.748535 
	C397.979950,309.620941 397.364136,312.243683 393.803436,314.592285 
	C388.814209,317.883148 384.244629,321.805664 379.439301,325.382416 
	C377.747070,326.641968 376.258301,328.342651 373.142761,328.609406 
	C371.424988,297.925323 371.625336,267.113068 365.222046,236.787033 
	C372.157501,244.797745 376.440063,254.280975 381.220581,263.899048 
z"/>
<path fill="#000000" opacity="1.000000" stroke="none" 
	d="
M325.868774,265.738831 
	C322.119781,272.677856 319.171631,279.712738 312.545532,285.980255 
	C309.651093,268.609192 304.338531,253.320938 296.137604,238.295639 
	C300.156555,238.289001 302.450470,239.763321 304.707550,240.925232 
	C311.654572,244.501541 318.258789,248.653290 324.762146,253.010330 
	C329.089569,255.909576 330.171265,258.867004 327.155914,263.177368 
	C326.685211,263.850250 326.409668,264.659668 325.868774,265.738831 
z"/>
<path fill="#000000" opacity="1.000000" stroke="none" 
	d="
M269.039429,366.829834 
	C266.994293,364.519073 268.308319,362.874329 269.455597,361.214355 
	C273.131622,355.895508 278.818726,354.568115 284.657959,353.906952 
	C290.160034,353.283966 295.494965,354.500580 300.766602,356.159973 
	C295.870850,368.788300 279.336304,374.402802 269.039429,366.829834 
z"/>
</svg>